<svg width="47" height="46" viewBox="0 0 47 46" fill="none" xmlns="http://www.w3.org/2000/svg">
<rect x="0.245728" width="46" height="46" rx="23" fill="#FD853A"/>
<path d="M35.4401 26.5953C34.3474 27.7882 33.0059 28.526 31.3828 28.5885C28.3179 28.7063 25.9454 26.9061 25.6516 24.6538C25.0669 20.1703 27.9861 17.4112 31.1832 17.4112C32.81 17.4112 34.021 18.0328 35.0961 19.0293L37.901 15.8705C36.3789 14.3661 34.038 13 31.1832 13C28.4193 13 25.9319 13.914 24.0458 15.6215V13.4076H10.1457V17.6873H18.9398V24.4952C18.9398 27.5861 17.7628 28.5885 15.472 28.5885C13.9841 28.5885 12.4616 27.7186 11.1734 26.1089L8.24573 29.2749C10.2088 32.0211 13.1435 33 15.6411 33C19.5065 33 21.8095 31.5884 23.0009 29.4611C24.9398 31.801 27.7821 33 30.8572 33C33.8882 33 36.4081 31.8625 38.2457 29.6852L35.4401 26.5953Z" fill="white"/>
</svg>
