<svg width="83" height="20" viewBox="0 0 83 20" fill="none" xmlns="http://www.w3.org/2000/svg">
<g clip-path="url(#clip0_212_47)">
<path d="M0.245728 16.3807L2.62619 13.7839C3.67119 15.1062 4.9064 15.8209 6.11585 15.8221C7.976 15.8221 8.93341 15.0012 8.935 12.462L8.94134 4.08128L1.79915 4.07403L1.80193 0.555725L13.0896 0.564578L13.0805 12.8072C13.0777 16.441 11.3099 19.4471 6.25059 19.4443C4.22162 19.443 1.83878 18.6382 0.245728 16.3807Z" fill="white"/>
<path d="M16.0896 10.0944C16.0944 3.9495 19.9335 0.386116 24.8324 0.39014C27.1506 0.39014 29.0516 1.51449 30.2876 2.75191L28.0066 5.34547C27.1348 4.52535 26.1512 4.01388 24.8296 4.01268C22.2336 4.01268 20.3362 6.24688 20.3338 9.95956C20.3306 13.7696 22.2244 15.9821 24.9834 15.9861C26.3022 15.9861 27.3912 15.331 28.2792 14.3523L30.5555 16.8915C29.0627 18.6799 27.0155 19.6119 24.5538 19.6099C20.008 19.6042 16.0848 16.3483 16.0896 10.0944Z" fill="white"/>
<path d="M47.9961 19.274L43.866 11.8543C45.8189 10.9606 47.1262 9.2342 47.1282 6.51106C47.1318 2.1014 43.9449 0.734 40.0708 0.730781L33.5694 0.725952L33.5555 19.2616L37.7026 19.2648L37.7074 12.5972H39.8814L43.3659 19.2672L47.9961 19.274ZM37.7137 4.05875H39.7312C41.906 4.05875 43.0722 4.67645 43.0707 6.50623C43.0707 8.32072 41.902 9.268 39.7272 9.26639H37.7098L37.7137 4.05875Z" fill="white"/>
<path d="M51.0106 0.727356L63.1329 0.736611L63.1301 4.25371L55.1474 4.24768L55.1446 7.96518L61.927 7.97041L61.9242 11.4875L55.1419 11.4823L55.1387 15.7479L63.4024 15.7543L63.3996 19.2726L50.996 19.263L51.0106 0.727356Z" fill="white"/>
<path d="M78.3657 19.2682L82.7541 19.2718L77.0734 0.731786L72.1124 0.728165L66.4023 19.2593L70.6386 19.2626L71.7581 14.8549L77.2617 14.8589L78.3657 19.2682ZM72.5879 11.5869L73.0238 9.87987C73.4883 8.02877 73.9983 5.85895 74.4477 3.90321H74.5598C74.9989 5.85975 75.5533 8.03158 76.0153 9.88229L76.4433 11.5901L72.5879 11.5869Z" fill="white"/>
</g>
<defs>
<clipPath id="clip0_212_47">
<rect width="82.5084" height="19.2197" fill="white" transform="translate(0.245728 0.390137)"/>
</clipPath>
</defs>
</svg>
