<svg width="131" height="66" viewBox="0 0 131 66" fill="none" xmlns="http://www.w3.org/2000/svg">
<rect x="1.39214" y="21.6373" width="102.706" height="43.7255" rx="21.8627" fill="white" fill-opacity="0.1"/>
<rect x="1.39214" y="21.6373" width="102.706" height="43.7255" rx="21.8627" stroke="#171717" stroke-width="1.27451"/>
<path d="M36.8896 35.7012H39.2432V49.5H36.8896V43.6797H30.1221V49.5H27.749V35.7012H30.1221V41.4434H36.8896V35.7012ZM51.8729 44.4219C51.8729 44.7214 51.8533 45.0143 51.8143 45.3008H43.5525C43.7348 46.0365 44.1189 46.6257 44.7049 47.0684C45.2973 47.5046 46.007 47.7227 46.8338 47.7227C47.4718 47.7227 48.0643 47.5892 48.6111 47.3223C49.1645 47.0553 49.5942 46.7201 49.9002 46.3164L51.4139 47.6152C50.8865 48.2793 50.216 48.8001 49.4021 49.1777C48.5949 49.5553 47.7192 49.7441 46.7752 49.7441C45.1606 49.7441 43.8162 49.2298 42.742 48.2012C41.6743 47.1725 41.1404 45.8932 41.1404 44.3633C41.1404 43.3737 41.3748 42.4753 41.8436 41.668C42.3123 40.8542 42.9568 40.2161 43.7771 39.7539C44.604 39.2917 45.5187 39.0605 46.5213 39.0605C48.0512 39.0605 49.324 39.5716 50.3396 40.5938C51.3618 41.6094 51.8729 42.8854 51.8729 44.4219ZM46.5018 41.082C45.7791 41.082 45.1476 41.3001 44.6072 41.7363C44.0734 42.1725 43.7153 42.7487 43.533 43.4648H49.4803C49.311 42.7487 48.9529 42.1725 48.4061 41.7363C47.8657 41.3001 47.2309 41.082 46.5018 41.082ZM53.526 49.5V35.0957H55.7721V49.5H53.526ZM58.1283 49.5V35.0957H60.3744V49.5H58.1283ZM67.5744 49.7441C66.0184 49.7441 64.7196 49.2331 63.6779 48.2109C62.6363 47.1888 62.1154 45.9193 62.1154 44.4023C62.1154 42.8854 62.6363 41.6159 63.6779 40.5938C64.7196 39.5716 66.0184 39.0605 67.5744 39.0605C68.59 39.0605 69.5145 39.2949 70.3479 39.7637C71.1877 40.2259 71.8452 40.8672 72.3205 41.6875C72.7958 42.5013 73.0334 43.4062 73.0334 44.4023C73.0334 45.3984 72.7958 46.3066 72.3205 47.127C71.8452 47.9408 71.1877 48.582 70.3479 49.0508C69.5145 49.513 68.59 49.7441 67.5744 49.7441ZM65.3186 46.668C65.924 47.2734 66.676 47.5762 67.5744 47.5762C68.4729 47.5762 69.2183 47.2734 69.8107 46.668C70.4097 46.056 70.7092 45.3008 70.7092 44.4023C70.7092 43.4974 70.4097 42.7422 69.8107 42.1367C69.2183 41.5247 68.4729 41.2188 67.5744 41.2188C66.676 41.2188 65.924 41.5247 65.3186 42.1367C64.7131 42.7487 64.4104 43.5039 64.4104 44.4023C64.4104 45.3008 64.7131 46.056 65.3186 46.668ZM75.0381 45.3203L74.9014 39.0996V35.7012H77.2744V39.0996L77.1377 45.3203H75.0381ZM76.0732 49.6562C75.6305 49.6562 75.2627 49.5098 74.9697 49.2168C74.6833 48.9238 74.54 48.5592 74.54 48.123C74.54 47.6803 74.6865 47.3125 74.9795 47.0195C75.2725 46.7266 75.637 46.5801 76.0732 46.5801C76.5225 46.5801 76.8936 46.7266 77.1865 47.0195C77.486 47.3125 77.6357 47.6803 77.6357 48.123C77.6357 48.5658 77.486 48.9336 77.1865 49.2266C76.8936 49.513 76.5225 49.6562 76.0732 49.6562Z" fill="#171717"/>
<path d="M100.745 20C100.745 17 103.745 11 100.745 2M108.245 23.5C112.578 19.3333 121.445 9.2 122.245 2M111.245 30.5C113.912 30.5 121.045 29.1 128.245 23.5" stroke="#FEB273" stroke-width="4" stroke-linecap="round" stroke-linejoin="round"/>
</svg>
